<svg width="132" height="132" viewBox="0 0 132 132" fill="none" xmlns="http://www.w3.org/2000/svg">
<g filter="url(#filter0_d)">
<path d="M107 51C107 73.6437 88.6437 92 66 92C25 92 25 92 25 51C25 28.3563 43.3563 10 66 10C88.6437 10 107 28.3563 107 51Z" fill="#22A75D"/>
</g>
<path d="M58.1494 43.8555C59.512 43.8555 60.6842 44.1898 61.666 44.8584C62.6562 45.527 63.418 46.5511 63.9512 47.9307C64.4928 49.3018 64.7637 51.2145 64.7637 53.6689C64.7637 56.1488 64.4886 58.0785 63.9385 59.458C63.3968 60.8376 62.6647 61.8532 61.7422 62.5049C60.8197 63.1481 59.6559 63.4697 58.251 63.4697C56.846 63.4697 55.6654 63.1439 54.709 62.4922C53.7526 61.8405 53.0036 60.8503 52.4619 59.5215C51.9202 58.1927 51.6494 56.3011 51.6494 53.8467C51.6494 50.4189 52.1784 47.9349 53.2363 46.3945C54.4128 44.7018 56.0505 43.8555 58.1494 43.8555ZM58.2383 47.2324C57.6374 47.2324 57.1042 47.4271 56.6387 47.8164C56.1732 48.1973 55.8177 48.8574 55.5723 49.7969C55.3268 50.7363 55.2041 52.1117 55.2041 53.9229C55.2041 56.2842 55.4834 57.9176 56.042 58.8232C56.609 59.7204 57.3411 60.1689 58.2383 60.1689C59.1016 60.1689 59.7871 59.7415 60.2949 58.8867C60.9128 57.8542 61.2217 56.1276 61.2217 53.707C61.2217 51.2526 60.9424 49.5599 60.3838 48.6289C59.8337 47.6979 59.1185 47.2324 58.2383 47.2324ZM69.7783 44.3252H75.0977V63H71.5684V47.6641H67.7217L69.7783 44.3252Z" fill="#0F1320"/>
<defs>
<filter id="filter0_d" x="0" y="0" width="132" height="132" filterUnits="userSpaceOnUse" color-interpolation-filters="sRGB">
<feFlood flood-opacity="0" result="BackgroundImageFix"/>
<feColorMatrix in="SourceAlpha" type="matrix" values="0 0 0 0 0 0 0 0 0 0 0 0 0 0 0 0 0 0 127 0" result="hardAlpha"/>
<feOffset dy="15"/>
<feGaussianBlur stdDeviation="12.5"/>
<feColorMatrix type="matrix" values="0 0 0 0 0.133333 0 0 0 0 0.654902 0 0 0 0 0.364706 0 0 0 0.25 0"/>
<feBlend mode="normal" in2="BackgroundImageFix" result="effect1_dropShadow"/>
<feBlend mode="normal" in="SourceGraphic" in2="effect1_dropShadow" result="shape"/>
</filter>
</defs>
</svg>
