<svg width="132" height="132" viewBox="0 0 132 132" fill="none" xmlns="http://www.w3.org/2000/svg">
<g filter="url(#filter0_d)">
<path d="M107 51C107 73.6437 88.6437 92 66 92C25 92 25 92 25 51C25 28.3563 43.3563 10 66 10C88.6437 10 107 28.3563 107 51Z" fill="#2278D4"/>
</g>
<path d="M57.1494 43.8555C58.512 43.8555 59.6842 44.1898 60.666 44.8584C61.6562 45.527 62.418 46.5511 62.9512 47.9307C63.4928 49.3018 63.7637 51.2145 63.7637 53.6689C63.7637 56.1488 63.4886 58.0785 62.9385 59.458C62.3968 60.8376 61.6647 61.8532 60.7422 62.5049C59.8197 63.1481 58.6559 63.4697 57.251 63.4697C55.846 63.4697 54.6654 63.1439 53.709 62.4922C52.7526 61.8405 52.0036 60.8503 51.4619 59.5215C50.9202 58.1927 50.6494 56.3011 50.6494 53.8467C50.6494 50.4189 51.1784 47.9349 52.2363 46.3945C53.4128 44.7018 55.0505 43.8555 57.1494 43.8555ZM57.2383 47.2324C56.6374 47.2324 56.1042 47.4271 55.6387 47.8164C55.1732 48.1973 54.8177 48.8574 54.5723 49.7969C54.3268 50.7363 54.2041 52.1117 54.2041 53.9229C54.2041 56.2842 54.4834 57.9176 55.042 58.8232C55.609 59.7204 56.3411 60.1689 57.2383 60.1689C58.1016 60.1689 58.7871 59.7415 59.2949 58.8867C59.9128 57.8542 60.2217 56.1276 60.2217 53.707C60.2217 51.2526 59.9424 49.5599 59.3838 48.6289C58.8337 47.6979 58.1185 47.2324 57.2383 47.2324ZM69.0322 50.3428H65.5664C65.6595 48.3285 66.29 46.7458 67.458 45.5947C68.6344 44.4352 70.141 43.8555 71.9775 43.8555C73.1117 43.8555 74.1104 44.0967 74.9736 44.5791C75.8454 45.0531 76.5394 45.7428 77.0557 46.6484C77.5804 47.5456 77.8428 48.4596 77.8428 49.3906C77.8428 50.4993 77.5254 51.6927 76.8906 52.9707C76.2643 54.2487 75.1133 55.7594 73.4375 57.5029L71.3428 59.7119H77.9951V63H65.0586V61.2988L70.835 55.4082C72.2314 53.9948 73.1582 52.8607 73.6152 52.0059C74.0807 51.1426 74.3135 50.3639 74.3135 49.6699C74.3135 48.9505 74.0723 48.3581 73.5898 47.8926C73.1159 47.4186 72.5023 47.1816 71.749 47.1816C70.9873 47.1816 70.3525 47.4652 69.8447 48.0322C69.3369 48.5993 69.0661 49.3695 69.0322 50.3428Z" fill="#0F1320"/>
<defs>
<filter id="filter0_d" x="0" y="0" width="132" height="132" filterUnits="userSpaceOnUse" color-interpolation-filters="sRGB">
<feFlood flood-opacity="0" result="BackgroundImageFix"/>
<feColorMatrix in="SourceAlpha" type="matrix" values="0 0 0 0 0 0 0 0 0 0 0 0 0 0 0 0 0 0 127 0" result="hardAlpha"/>
<feOffset dy="15"/>
<feGaussianBlur stdDeviation="12.5"/>
<feColorMatrix type="matrix" values="0 0 0 0 0.133333 0 0 0 0 0.470588 0 0 0 0 0.831373 0 0 0 0.25 0"/>
<feBlend mode="normal" in2="BackgroundImageFix" result="effect1_dropShadow"/>
<feBlend mode="normal" in="SourceGraphic" in2="effect1_dropShadow" result="shape"/>
</filter>
</defs>
</svg>
