<svg width="132" height="132" viewBox="0 0 132 132" fill="none" xmlns="http://www.w3.org/2000/svg">
<g filter="url(#filter0_d)">
<path d="M107 51C107 73.6437 88.6437 92 66 92C25 92 25 92 25 51C25 28.3563 43.3563 10 66 10C88.6437 10 107 28.3563 107 51Z" fill="#FFD100"/>
</g>
<path d="M56.1494 43.8555C57.512 43.8555 58.6842 44.1898 59.666 44.8584C60.6562 45.527 61.418 46.5511 61.9512 47.9307C62.4928 49.3018 62.7637 51.2145 62.7637 53.6689C62.7637 56.1488 62.4886 58.0785 61.9385 59.458C61.3968 60.8376 60.6647 61.8532 59.7422 62.5049C58.8197 63.1481 57.6559 63.4697 56.251 63.4697C54.846 63.4697 53.6654 63.1439 52.709 62.4922C51.7526 61.8405 51.0036 60.8503 50.4619 59.5215C49.9202 58.1927 49.6494 56.3011 49.6494 53.8467C49.6494 50.4189 50.1784 47.9349 51.2363 46.3945C52.4128 44.7018 54.0505 43.8555 56.1494 43.8555ZM56.2383 47.2324C55.6374 47.2324 55.1042 47.4271 54.6387 47.8164C54.1732 48.1973 53.8177 48.8574 53.5723 49.7969C53.3268 50.7363 53.2041 52.1117 53.2041 53.9229C53.2041 56.2842 53.4834 57.9176 54.042 58.8232C54.609 59.7204 55.3411 60.1689 56.2383 60.1689C57.1016 60.1689 57.7871 59.7415 58.2949 58.8867C58.9128 57.8542 59.2217 56.1276 59.2217 53.707C59.2217 51.2526 58.9424 49.5599 58.3838 48.6289C57.8337 47.6979 57.1185 47.2324 56.2383 47.2324ZM68.4385 48.9336H65.0234C65.2012 47.554 65.6963 46.4453 66.5088 45.6074C67.6429 44.4395 69.069 43.8555 70.7871 43.8555C72.319 43.8555 73.6012 44.3421 74.6338 45.3154C75.6748 46.2887 76.1953 47.444 76.1953 48.7812C76.1953 49.6107 75.9668 50.3682 75.5098 51.0537C75.0612 51.7393 74.4053 52.2936 73.542 52.7168C74.6761 53.0553 75.5605 53.6478 76.1953 54.4941C76.8385 55.332 77.1602 56.3223 77.1602 57.4648C77.1602 59.1406 76.5423 60.5625 75.3066 61.7305C74.071 62.89 72.4967 63.4697 70.584 63.4697C68.7728 63.4697 67.2959 62.9238 66.1533 61.832C65.0107 60.7318 64.3844 59.238 64.2744 57.3506H67.791C67.9434 58.3154 68.2777 59.0348 68.7939 59.5088C69.3187 59.9743 69.9788 60.207 70.7744 60.207C71.6038 60.207 72.2894 59.9404 72.8311 59.4072C73.3812 58.874 73.6562 58.2223 73.6562 57.4521C73.6562 56.6058 73.2881 55.8906 72.5518 55.3066C71.8154 54.7227 70.7533 54.4222 69.3652 54.4053V51.3584C70.2201 51.2907 70.8548 51.1595 71.2695 50.9648C71.6927 50.7617 72.0186 50.4867 72.2471 50.1396C72.484 49.7926 72.6025 49.4245 72.6025 49.0352C72.6025 48.5273 72.4248 48.1084 72.0693 47.7783C71.7139 47.4398 71.2484 47.2705 70.6729 47.2705C70.165 47.2705 69.7038 47.4271 69.2891 47.7402C68.8743 48.0449 68.5908 48.4427 68.4385 48.9336Z" fill="#0F1320"/>
<defs>
<filter id="filter0_d" x="0" y="0" width="132" height="132" filterUnits="userSpaceOnUse" color-interpolation-filters="sRGB">
<feFlood flood-opacity="0" result="BackgroundImageFix"/>
<feColorMatrix in="SourceAlpha" type="matrix" values="0 0 0 0 0 0 0 0 0 0 0 0 0 0 0 0 0 0 127 0" result="hardAlpha"/>
<feOffset dy="15"/>
<feGaussianBlur stdDeviation="12.5"/>
<feColorMatrix type="matrix" values="0 0 0 0 1 0 0 0 0 0.819608 0 0 0 0 0 0 0 0 0.25 0"/>
<feBlend mode="normal" in2="BackgroundImageFix" result="effect1_dropShadow"/>
<feBlend mode="normal" in="SourceGraphic" in2="effect1_dropShadow" result="shape"/>
</filter>
</defs>
</svg>
