<svg width="2002" height="1039" viewBox="0 0 2002 1039" fill="none" xmlns="http://www.w3.org/2000/svg">
<path d="M0 223L108.811 1039H586L267.902 223L0 223Z" fill="url(#paint0_linear)"/>
<path d="M685.156 1037L420 359.846L676.181 296.173L961.743 228L1059.37 228L1003.5 349.267L1236 1036.86L685.156 1037Z" fill="url(#paint1_linear)"/>
<path d="M257.089 213L365.675 478.804L108 1039H686.847L640.25 922.129L963 227.115L257.089 213Z" fill="#FFD100"/>
<path d="M1080.87 183.565L686 1037L1540.88 1037L2002 0L1080.87 183.565Z" fill="#E20613"/>
<path d="M963 227.742L962.796 227L361 227L640.5 923L963 227.742Z" fill="url(#paint2_linear)"/>
<path d="M108 1039H586L365.709 479L108 1039Z" fill="url(#paint3_linear)"/>
<path d="M686 1037H1184L974.102 413L686 1037Z" fill="url(#paint4_linear)"/>
<defs>
<linearGradient id="paint0_linear" x1="240.232" y1="1039" x2="240.232" y2="379.491" gradientUnits="userSpaceOnUse">
<stop stop-color="#2B3087"/>
<stop offset="0.82" stop-color="#00B4EC"/>
</linearGradient>
<linearGradient id="paint1_linear" x1="827.796" y1="1037" x2="827.796" y2="225.74" gradientUnits="userSpaceOnUse">
<stop stop-color="#2B3087"/>
<stop offset="1" stop-color="#118FB7"/>
</linearGradient>
<linearGradient id="paint2_linear" x1="691.4" y1="921" x2="691.4" y2="227" gradientUnits="userSpaceOnUse">
<stop stop-color="#009540"/>
<stop offset="1" stop-color="#26A960"/>
</linearGradient>
<linearGradient id="paint3_linear" x1="347" y1="479" x2="347" y2="1039" gradientUnits="userSpaceOnUse">
<stop stop-color="#3FAE6C"/>
<stop offset="1" stop-color="#006633"/>
</linearGradient>
<linearGradient id="paint4_linear" x1="686" y1="725.061" x2="1184" y2="725.061" gradientUnits="userSpaceOnUse">
<stop stop-color="#164194"/>
<stop offset="1" stop-color="#005CA9"/>
</linearGradient>
</defs>
</svg>
