<svg width="50" height="50" viewBox="0 0 50 50" fill="none" xmlns="http://www.w3.org/2000/svg">
<circle opacity="0.05" cx="25" cy="25" r="24" stroke="white" stroke-width="2"/>
<g clip-path="url(#clip0)">
<path d="M25 15.4167C19.475 15.4167 15 19.8167 15 25.2434C15 29.5859 17.865 33.2684 21.8375 34.5667C22.3375 34.6592 22.5208 34.3551 22.5208 34.0942C22.5208 33.8609 22.5125 33.2426 22.5083 32.4234C19.7267 33.0159 19.14 31.1051 19.14 31.1051C18.685 29.9709 18.0275 29.6676 18.0275 29.6676C17.1217 29.0584 18.0975 29.0709 18.0975 29.0709C19.1017 29.1392 19.6292 30.0834 19.6292 30.0834C20.5208 31.5859 21.97 31.1517 22.5417 30.9009C22.6317 30.2651 22.8892 29.8326 23.175 29.5867C20.9542 29.3409 18.62 28.4959 18.62 24.7309C18.62 23.6584 19.0075 22.7817 19.6492 22.0942C19.5367 21.8459 19.1992 20.8467 19.7367 19.4934C19.7367 19.4934 20.5742 19.2301 22.4867 20.5009C23.2867 20.2826 24.1367 20.1742 24.9867 20.1692C25.8367 20.1742 26.6867 20.2826 27.4867 20.5009C29.3867 19.2301 30.2242 19.4934 30.2242 19.4934C30.7617 20.8467 30.4242 21.8459 30.3242 22.0942C30.9617 22.7817 31.3492 23.6584 31.3492 24.7309C31.3492 28.5059 29.0117 29.3367 26.7867 29.5784C27.1367 29.8734 27.4617 30.4759 27.4617 31.3967C27.4617 32.7117 27.4492 33.7684 27.4492 34.0876C27.4492 34.3451 27.6242 34.6526 28.1367 34.5542C32.1375 33.2642 35 29.5792 35 25.2434C35 19.8167 30.5225 15.4167 25 15.4167V15.4167Z" fill="white"/>
</g>
<defs>
<clipPath id="clip0">
<rect width="20" height="20" fill="white" transform="translate(15 15)"/>
</clipPath>
</defs>
</svg>
