<svg width="120" height="120" viewBox="0 0 120 120" fill="none" xmlns="http://www.w3.org/2000/svg">
<g filter="url(#filter0_d)">
<circle cx="60" cy="45" r="35" fill="#2278D4"/>
</g>
<path d="M49.3267 45.4L52.8867 48L51.5347 52.187C51.3162 52.8363 51.3134 53.539 51.5268 54.19C51.7402 54.8411 52.1583 55.4058 52.7187 55.8C53.2696 56.2067 53.9371 56.4247 54.6219 56.4212C55.3066 56.4178 55.9719 56.1932 56.5187 55.781L59.9997 53.219L63.4817 55.778C64.0316 56.1824 64.6955 56.4021 65.3781 56.4054C66.0607 56.4087 66.7267 56.1955 67.2805 55.7965C67.8342 55.3974 68.2472 54.833 68.46 54.1844C68.6728 53.5359 68.6744 52.8365 68.4647 52.187L67.1127 48L70.6727 45.4C71.2218 44.9985 71.6301 44.4337 71.8391 43.7863C72.048 43.139 72.0471 42.4421 71.8364 41.7953C71.6257 41.1485 71.2159 40.5849 70.6657 40.1849C70.1155 39.7848 69.453 39.5689 68.7727 39.568H64.3997L63.0727 35.432C62.864 34.7809 62.454 34.213 61.9017 33.81C61.3494 33.4071 60.6834 33.1899 59.9997 33.1899C59.316 33.1899 58.65 33.4071 58.0977 33.81C57.5454 34.213 57.1354 34.7809 56.9267 35.432L55.5997 39.568H51.2307C50.5504 39.5689 49.8879 39.7848 49.3377 40.1849C48.7875 40.5849 48.3777 41.1485 48.167 41.7953C47.9563 42.4421 47.9554 43.139 48.1644 43.7863C48.3733 44.4337 48.7816 44.9985 49.3307 45.4H49.3267Z" fill="#191F30"/>
<defs>
<filter id="filter0_d" x="0" y="0" width="120" height="120" filterUnits="userSpaceOnUse" color-interpolation-filters="sRGB">
<feFlood flood-opacity="0" result="BackgroundImageFix"/>
<feColorMatrix in="SourceAlpha" type="matrix" values="0 0 0 0 0 0 0 0 0 0 0 0 0 0 0 0 0 0 127 0" result="hardAlpha"/>
<feOffset dy="15"/>
<feGaussianBlur stdDeviation="12.5"/>
<feColorMatrix type="matrix" values="0 0 0 0 0.133333 0 0 0 0 0.470588 0 0 0 0 0.831373 0 0 0 0.25 0"/>
<feBlend mode="normal" in2="BackgroundImageFix" result="effect1_dropShadow"/>
<feBlend mode="normal" in="SourceGraphic" in2="effect1_dropShadow" result="shape"/>
</filter>
</defs>
</svg>
