<svg width="50" height="50" viewBox="0 0 50 50" fill="none" xmlns="http://www.w3.org/2000/svg">
<circle opacity="0.05" cx="25" cy="25" r="24" stroke="white" stroke-width="2"/>
<path d="M29.1667 16.6667H20.8334C18.5322 16.6667 16.6667 18.5322 16.6667 20.8334V29.1667C16.6667 31.4679 18.5322 33.3334 20.8334 33.3334H29.1667C31.4679 33.3334 33.3334 31.4679 33.3334 29.1667V20.8334C33.3334 18.5322 31.4679 16.6667 29.1667 16.6667Z" stroke="white" stroke-width="2" stroke-linecap="round" stroke-linejoin="round"/>
<path d="M28.3333 24.475C28.4362 25.1685 28.3177 25.8769 27.9948 26.4992C27.6719 27.1215 27.1609 27.6262 26.5347 27.9414C25.9084 28.2566 25.1987 28.3663 24.5065 28.2549C23.8143 28.1436 23.1748 27.8167 22.679 27.321C22.1832 26.8252 21.8564 26.1857 21.745 25.4935C21.6336 24.8013 21.7434 24.0916 22.0586 23.4653C22.3738 22.8391 22.8785 22.3281 23.5008 22.0052C24.1231 21.6823 24.8314 21.5638 25.525 21.6667C26.2324 21.7716 26.8874 22.1012 27.3931 22.6069C27.8988 23.1126 28.2284 23.7676 28.3333 24.475Z" stroke="white" stroke-width="2" stroke-linecap="round" stroke-linejoin="round"/>
<path d="M29.5833 20.4167H29.5916" stroke="white" stroke-width="2" stroke-linecap="round" stroke-linejoin="round"/>
</svg>
