<svg width="53" height="34" viewBox="0 0 53 34" fill="none" xmlns="http://www.w3.org/2000/svg">
<path d="M10.2145 12.2001H0.298584L10.7654 33.6846H20.6814L10.2145 12.2001Z" fill="#0B92D2"/>
<path d="M30.5971 6.69147H20.6812L31.8825 33.6849H41.7985L30.5971 6.69147Z" fill="#137BC0"/>
<path d="M20.6812 6.69147H30.5972L20.6812 33.6849H10.7653L20.6812 6.69147Z" fill="#0E763F"/>
<path fill-rule="evenodd" clip-rule="evenodd" d="M15.0278 22.0807L10.7651 33.6848H20.6811L15.0278 22.0807Z" fill="#FFD100"/>
<path fill-rule="evenodd" clip-rule="evenodd" d="M10.7651 33.6848H20.6811L15.0278 22.0807L10.7651 33.6848Z" fill="#FFD100"/>
<path d="M43.0839 0.815125H52.9999L41.6149 33.6847H31.6989L43.0839 0.815125Z" fill="#E20613"/>
<path fill-rule="evenodd" clip-rule="evenodd" d="M36.2937 20.4192L31.7824 33.4436L31.8825 33.6848H41.7984L41.6984 33.4436L36.2937 20.4192Z" fill="#0E4B9C"/>
<path fill-rule="evenodd" clip-rule="evenodd" d="M41.6148 33.6848L41.6984 33.4436L36.2937 20.4192L31.7824 33.4436L31.6989 33.6848H41.6148Z" fill="#0E4B9C"/>
</svg>
