<svg width="50" height="50" viewBox="0 0 50 50" fill="none" xmlns="http://www.w3.org/2000/svg">
<circle opacity="0.05" cx="25" cy="25" r="24" stroke="white" stroke-width="2"/>
<g clip-path="url(#clip0)">
<path d="M33.4042 18.9441L35 17.4174V17.0833H29.4717L25.5317 26.8899L21.0492 17.0833H15.2525V17.4174L17.1167 19.6616C17.2983 19.8274 17.3933 20.0699 17.3692 20.3141V29.1333C17.4267 29.4508 17.3233 29.7774 17.1 30.0083L15 32.5533V32.8833H20.9542V32.5491L18.8542 30.0083C18.6267 29.7766 18.5192 29.4558 18.565 29.1333V21.5049L23.7917 32.8874H24.3992L28.8933 21.5049V30.5724C28.8933 30.8116 28.8933 30.8608 28.7367 31.0174L27.12 32.5816V32.9166H34.9633V32.5824L33.405 31.0566C33.2683 30.9533 33.1975 30.7799 33.2267 30.6116V19.3891C33.1975 19.2199 33.2675 19.0466 33.4042 18.9441V18.9441Z" fill="white"/>
</g>
<defs>
<clipPath id="clip0">
<rect width="20" height="20" fill="white" transform="translate(15 15)"/>
</clipPath>
</defs>
</svg>
