<svg width="1910" height="1374" viewBox="0 0 1910 1374" fill="none" xmlns="http://www.w3.org/2000/svg">
<path d="M0 287H1920V1087H0V287Z" fill="#171B29"/>
<mask id="mask0" style="mask-type:alpha" maskUnits="userSpaceOnUse" x="0" y="0" width="1920" height="1374">
<path fill-rule="evenodd" clip-rule="evenodd" d="M1642 1087C1795.54 1087 1920 1211.46 1920 1365V1087H1642ZM1919.86 1374H1920V1365C1920 1368.01 1919.95 1371.01 1919.86 1374Z" fill="#171B29"/>
<path fill-rule="evenodd" clip-rule="evenodd" d="M278 287C124.465 287 0 162.535 0 9V287H278ZM0.142944 0H0V9C0 5.98853 0.0479126 2.98828 0.142944 0Z" fill="#171B29"/>
<path d="M0 287H1920V1087H0V287Z" fill="#171B29"/>
</mask>
<g mask="url(#mask0)">
<path d="M-214 -104.275L-31.5445 1264L768.61 1264L235.22 -104.275L-214 -104.275Z" fill="url(#paint0_linear)"/>
<path d="M934.875 1260.65L490.26 125.189L919.826 18.4213L1398.66 -95.8914L1562.36 -95.8914L1468.68 107.451L1858.54 1260.42L934.875 1260.65Z" fill="url(#paint1_linear)"/>
<path d="M217.088 -121.043L399.167 324.659L-32.9047 1264L937.711 1264L859.577 1068.03L1400.77 -97.3756L217.088 -121.043Z" fill="#FFD100"/>
<path d="M1569.94 -142.91L849 1415L1935.1 1415L2777 -478L1569.94 -142.91Z" fill="#E20613"/>
<path d="M1400.77 -96.3243L1400.42 -97.5681L391.328 -97.5681L859.996 1069.49L1400.77 -96.3243Z" fill="url(#paint2_linear)"/>
<path d="M-32.9047 1264H768.61L399.224 324.988L-32.9047 1264Z" fill="url(#paint3_linear)"/>
<path d="M921 1260.65L1756.05 1260.65L1404.09 214.318L921 1260.65Z" fill="url(#paint4_linear)"/>
</g>
<defs>
<linearGradient id="paint0_linear" x1="188.822" y1="1264" x2="188.822" y2="158.131" gradientUnits="userSpaceOnUse">
<stop stop-color="#2B3087"/>
<stop offset="0.82" stop-color="#00B4EC"/>
</linearGradient>
<linearGradient id="paint1_linear" x1="1174.06" y1="1260.65" x2="1174.06" y2="-99.6806" gradientUnits="userSpaceOnUse">
<stop stop-color="#2B3087"/>
<stop offset="1" stop-color="#00B4EC"/>
</linearGradient>
<linearGradient id="paint2_linear" x1="945.345" y1="1066.14" x2="945.345" y2="-97.5681" gradientUnits="userSpaceOnUse">
<stop stop-color="#009540"/>
<stop offset="1" stop-color="#26A960"/>
</linearGradient>
<linearGradient id="paint3_linear" x1="367.853" y1="324.988" x2="367.853" y2="1264" gradientUnits="userSpaceOnUse">
<stop stop-color="#3FAE6C"/>
<stop offset="1" stop-color="#006633"/>
</linearGradient>
<linearGradient id="paint4_linear" x1="921" y1="737.586" x2="1756.05" y2="737.586" gradientUnits="userSpaceOnUse">
<stop stop-color="#164194"/>
<stop offset="1" stop-color="#005CA9"/>
</linearGradient>
</defs>
</svg>
