<svg width="132" height="132" viewBox="0 0 132 132" fill="none" xmlns="http://www.w3.org/2000/svg">
<g filter="url(#filter0_d)">
<path d="M107 51C107 73.6437 88.6437 92 66 92C25 92 25 92 25 51C25 28.3563 43.3563 10 66 10C88.6437 10 107 28.3563 107 51Z" fill="#22A75D"/>
</g>
<circle r="6" transform="matrix(-1 0 0 1 123 60)" fill="#22A75D"/>
<path d="M65.4492 60.2705L68.6992 64.4727H64.4844L62.834 62.3525C61.4714 63.0973 59.9521 63.4697 58.2764 63.4697C55.4749 63.4697 53.1475 62.5049 51.2939 60.5752C49.4404 58.637 48.5137 56.3307 48.5137 53.6562C48.5137 51.8704 48.9453 50.2327 49.8086 48.7432C50.6719 47.2451 51.8568 46.056 53.3633 45.1758C54.8783 44.2956 56.5033 43.8555 58.2383 43.8555C60.8874 43.8555 63.1598 44.8118 65.0557 46.7246C66.96 48.6374 67.9121 50.9691 67.9121 53.7197C67.9121 56.2503 67.0911 58.4339 65.4492 60.2705ZM63.2275 57.4014C63.9808 56.2842 64.3574 55.0485 64.3574 53.6943C64.3574 51.9255 63.7607 50.4232 62.5674 49.1875C61.374 47.9518 59.931 47.334 58.2383 47.334C56.4948 47.334 55.0348 47.9349 53.8584 49.1367C52.682 50.3385 52.0938 51.8662 52.0938 53.7197C52.0938 55.7848 52.8343 57.4183 54.3154 58.6201C55.4749 59.5596 56.791 60.0293 58.2637 60.0293C59.11 60.0293 59.9056 59.8643 60.6504 59.5342L57.3115 55.2305H61.5518L63.2275 57.4014ZM73.4092 44.3252H78.7285V63H75.1992V47.6641H71.3525L73.4092 44.3252Z" fill="#0F1320"/>
<defs>
<filter id="filter0_d" x="0" y="0" width="132" height="132" filterUnits="userSpaceOnUse" color-interpolation-filters="sRGB">
<feFlood flood-opacity="0" result="BackgroundImageFix"/>
<feColorMatrix in="SourceAlpha" type="matrix" values="0 0 0 0 0 0 0 0 0 0 0 0 0 0 0 0 0 0 127 0" result="hardAlpha"/>
<feOffset dy="15"/>
<feGaussianBlur stdDeviation="12.5"/>
<feColorMatrix type="matrix" values="0 0 0 0 0.133333 0 0 0 0 0.654902 0 0 0 0 0.364706 0 0 0 0.25 0"/>
<feBlend mode="normal" in2="BackgroundImageFix" result="effect1_dropShadow"/>
<feBlend mode="normal" in="SourceGraphic" in2="effect1_dropShadow" result="shape"/>
</filter>
</defs>
</svg>
