<svg width="132" height="132" viewBox="0 0 132 132" fill="none" xmlns="http://www.w3.org/2000/svg">
<circle r="6" transform="matrix(-1 0 0 1 123 60)" fill="#2278D4"/>
<g filter="url(#filter0_d)">
<path d="M107 51C107 73.6437 88.6437 92 66 92C25 92 25 92 25 51C25 28.3563 43.3563 10 66 10C88.6437 10 107 28.3563 107 51Z" fill="#2278D4"/>
</g>
<path d="M64.4492 60.2705L67.6992 64.4727H63.4844L61.834 62.3525C60.4714 63.0973 58.9521 63.4697 57.2764 63.4697C54.4749 63.4697 52.1475 62.5049 50.2939 60.5752C48.4404 58.637 47.5137 56.3307 47.5137 53.6562C47.5137 51.8704 47.9453 50.2327 48.8086 48.7432C49.6719 47.2451 50.8568 46.056 52.3633 45.1758C53.8783 44.2956 55.5033 43.8555 57.2383 43.8555C59.8874 43.8555 62.1598 44.8118 64.0557 46.7246C65.96 48.6374 66.9121 50.9691 66.9121 53.7197C66.9121 56.2503 66.0911 58.4339 64.4492 60.2705ZM62.2275 57.4014C62.9808 56.2842 63.3574 55.0485 63.3574 53.6943C63.3574 51.9255 62.7607 50.4232 61.5674 49.1875C60.374 47.9518 58.931 47.334 57.2383 47.334C55.4948 47.334 54.0348 47.9349 52.8584 49.1367C51.682 50.3385 51.0938 51.8662 51.0938 53.7197C51.0938 55.7848 51.8343 57.4183 53.3154 58.6201C54.4749 59.5596 55.791 60.0293 57.2637 60.0293C58.11 60.0293 58.9056 59.8643 59.6504 59.5342L56.3115 55.2305H60.5518L62.2275 57.4014ZM72.6631 50.3428H69.1973C69.2904 48.3285 69.9209 46.7458 71.0889 45.5947C72.2653 44.4352 73.7718 43.8555 75.6084 43.8555C76.7425 43.8555 77.7412 44.0967 78.6045 44.5791C79.4762 45.0531 80.1702 45.7428 80.6865 46.6484C81.2113 47.5456 81.4736 48.4596 81.4736 49.3906C81.4736 50.4993 81.1562 51.6927 80.5215 52.9707C79.8952 54.2487 78.7441 55.7594 77.0684 57.5029L74.9736 59.7119H81.626V63H68.6895V61.2988L74.4658 55.4082C75.8623 53.9948 76.7891 52.8607 77.2461 52.0059C77.7116 51.1426 77.9443 50.3639 77.9443 49.6699C77.9443 48.9505 77.7031 48.3581 77.2207 47.8926C76.7467 47.4186 76.1331 47.1816 75.3799 47.1816C74.6182 47.1816 73.9834 47.4652 73.4756 48.0322C72.9678 48.5993 72.6969 49.3695 72.6631 50.3428Z" fill="#0F1320"/>
<defs>
<filter id="filter0_d" x="0" y="0" width="132" height="132" filterUnits="userSpaceOnUse" color-interpolation-filters="sRGB">
<feFlood flood-opacity="0" result="BackgroundImageFix"/>
<feColorMatrix in="SourceAlpha" type="matrix" values="0 0 0 0 0 0 0 0 0 0 0 0 0 0 0 0 0 0 127 0" result="hardAlpha"/>
<feOffset dy="15"/>
<feGaussianBlur stdDeviation="12.5"/>
<feColorMatrix type="matrix" values="0 0 0 0 0.133333 0 0 0 0 0.470588 0 0 0 0 0.831373 0 0 0 0.25 0"/>
<feBlend mode="normal" in2="BackgroundImageFix" result="effect1_dropShadow"/>
<feBlend mode="normal" in="SourceGraphic" in2="effect1_dropShadow" result="shape"/>
</filter>
</defs>
</svg>
