<svg width="132" height="132" viewBox="0 0 132 132" fill="none" xmlns="http://www.w3.org/2000/svg">
<circle r="6" transform="matrix(-1 0 0 1 123 60)" fill="#FFD100"/>
<g filter="url(#filter0_d)">
<path d="M107 51C107 73.6437 88.6437 92 66 92C25 92 25 92 25 51C25 28.3563 43.3563 10 66 10C88.6437 10 107 28.3563 107 51Z" fill="#FFD100"/>
</g>
<path d="M63.4492 60.2705L66.6992 64.4727H62.4844L60.834 62.3525C59.4714 63.0973 57.9521 63.4697 56.2764 63.4697C53.4749 63.4697 51.1475 62.5049 49.2939 60.5752C47.4404 58.637 46.5137 56.3307 46.5137 53.6562C46.5137 51.8704 46.9453 50.2327 47.8086 48.7432C48.6719 47.2451 49.8568 46.056 51.3633 45.1758C52.8783 44.2956 54.5033 43.8555 56.2383 43.8555C58.8874 43.8555 61.1598 44.8118 63.0557 46.7246C64.96 48.6374 65.9121 50.9691 65.9121 53.7197C65.9121 56.2503 65.0911 58.4339 63.4492 60.2705ZM61.2275 57.4014C61.9808 56.2842 62.3574 55.0485 62.3574 53.6943C62.3574 51.9255 61.7607 50.4232 60.5674 49.1875C59.374 47.9518 57.931 47.334 56.2383 47.334C54.4948 47.334 53.0348 47.9349 51.8584 49.1367C50.682 50.3385 50.0938 51.8662 50.0938 53.7197C50.0938 55.7848 50.8343 57.4183 52.3154 58.6201C53.4749 59.5596 54.791 60.0293 56.2637 60.0293C57.11 60.0293 57.9056 59.8643 58.6504 59.5342L55.3115 55.2305H59.5518L61.2275 57.4014ZM72.0693 48.9336H68.6543C68.832 47.554 69.3271 46.4453 70.1396 45.6074C71.2738 44.4395 72.6999 43.8555 74.418 43.8555C75.9499 43.8555 77.2321 44.3421 78.2646 45.3154C79.3057 46.2887 79.8262 47.444 79.8262 48.7812C79.8262 49.6107 79.5977 50.3682 79.1406 51.0537C78.6921 51.7393 78.0361 52.2936 77.1729 52.7168C78.307 53.0553 79.1914 53.6478 79.8262 54.4941C80.4694 55.332 80.791 56.3223 80.791 57.4648C80.791 59.1406 80.1732 60.5625 78.9375 61.7305C77.7018 62.89 76.1276 63.4697 74.2148 63.4697C72.4036 63.4697 70.9268 62.9238 69.7842 61.832C68.6416 60.7318 68.0153 59.238 67.9053 57.3506H71.4219C71.5742 58.3154 71.9085 59.0348 72.4248 59.5088C72.9495 59.9743 73.6097 60.207 74.4053 60.207C75.2347 60.207 75.9202 59.9404 76.4619 59.4072C77.012 58.874 77.2871 58.2223 77.2871 57.4521C77.2871 56.6058 76.9189 55.8906 76.1826 55.3066C75.4463 54.7227 74.3841 54.4222 72.9961 54.4053V51.3584C73.8509 51.2907 74.4857 51.1595 74.9004 50.9648C75.3236 50.7617 75.6494 50.4867 75.8779 50.1396C76.1149 49.7926 76.2334 49.4245 76.2334 49.0352C76.2334 48.5273 76.0557 48.1084 75.7002 47.7783C75.3447 47.4398 74.8792 47.2705 74.3037 47.2705C73.7959 47.2705 73.3346 47.4271 72.9199 47.7402C72.5052 48.0449 72.2217 48.4427 72.0693 48.9336Z" fill="#0F1320"/>
<defs>
<filter id="filter0_d" x="0" y="0" width="132" height="132" filterUnits="userSpaceOnUse" color-interpolation-filters="sRGB">
<feFlood flood-opacity="0" result="BackgroundImageFix"/>
<feColorMatrix in="SourceAlpha" type="matrix" values="0 0 0 0 0 0 0 0 0 0 0 0 0 0 0 0 0 0 127 0" result="hardAlpha"/>
<feOffset dy="15"/>
<feGaussianBlur stdDeviation="12.5"/>
<feColorMatrix type="matrix" values="0 0 0 0 1 0 0 0 0 0.819608 0 0 0 0 0 0 0 0 0.25 0"/>
<feBlend mode="normal" in2="BackgroundImageFix" result="effect1_dropShadow"/>
<feBlend mode="normal" in="SourceGraphic" in2="effect1_dropShadow" result="shape"/>
</filter>
</defs>
</svg>
