<svg width="132" height="132" viewBox="0 0 132 132" fill="none" xmlns="http://www.w3.org/2000/svg">
<circle r="6" transform="matrix(-1 0 0 1 123 60)" fill="#E20613"/>
<g filter="url(#filter0_d)">
<path d="M107 51C107 73.6437 88.6437 92 66 92C25 92 25 92 25 51C25 28.3563 43.3563 10 66 10C88.6437 10 107 28.3563 107 51Z" fill="#E20613"/>
</g>
<path d="M62.4492 60.2705L65.6992 64.4727H61.4844L59.834 62.3525C58.4714 63.0973 56.9521 63.4697 55.2764 63.4697C52.4749 63.4697 50.1475 62.5049 48.2939 60.5752C46.4404 58.637 45.5137 56.3307 45.5137 53.6562C45.5137 51.8704 45.9453 50.2327 46.8086 48.7432C47.6719 47.2451 48.8568 46.056 50.3633 45.1758C51.8783 44.2956 53.5033 43.8555 55.2383 43.8555C57.8874 43.8555 60.1598 44.8118 62.0557 46.7246C63.96 48.6374 64.9121 50.9691 64.9121 53.7197C64.9121 56.2503 64.0911 58.4339 62.4492 60.2705ZM60.2275 57.4014C60.9808 56.2842 61.3574 55.0485 61.3574 53.6943C61.3574 51.9255 60.7607 50.4232 59.5674 49.1875C58.374 47.9518 56.931 47.334 55.2383 47.334C53.4948 47.334 52.0348 47.9349 50.8584 49.1367C49.682 50.3385 49.0938 51.8662 49.0938 53.7197C49.0938 55.7848 49.8343 57.4183 51.3154 58.6201C52.4749 59.5596 53.791 60.0293 55.2637 60.0293C56.11 60.0293 56.9056 59.8643 57.6504 59.5342L54.3115 55.2305H58.5518L60.2275 57.4014ZM74.7383 43.8555H78.293V55.8779H79.9561V59.166H78.293V63H74.8145V59.166H66.6641V55.8779L74.7383 43.8555ZM74.8145 55.8779V49.6191L70.5488 55.8779H74.8145Z" fill="#0F1320"/>
<defs>
<filter id="filter0_d" x="0" y="0" width="132" height="132" filterUnits="userSpaceOnUse" color-interpolation-filters="sRGB">
<feFlood flood-opacity="0" result="BackgroundImageFix"/>
<feColorMatrix in="SourceAlpha" type="matrix" values="0 0 0 0 0 0 0 0 0 0 0 0 0 0 0 0 0 0 127 0" result="hardAlpha"/>
<feOffset dy="15"/>
<feGaussianBlur stdDeviation="12.5"/>
<feColorMatrix type="matrix" values="0 0 0 0 0.886275 0 0 0 0 0.0235294 0 0 0 0 0.0745098 0 0 0 0.25 0"/>
<feBlend mode="normal" in2="BackgroundImageFix" result="effect1_dropShadow"/>
<feBlend mode="normal" in="SourceGraphic" in2="effect1_dropShadow" result="shape"/>
</filter>
</defs>
</svg>
