<svg width="50" height="50" viewBox="0 0 50 50" fill="none" xmlns="http://www.w3.org/2000/svg">
<circle opacity="0.05" cx="25" cy="25" r="24" stroke="white" stroke-width="2"/>
<g clip-path="url(#clip0)">
<path d="M32.7708 22.7567C32.1391 22.7567 31.5833 23.0226 31.1741 23.4367C29.6699 22.3801 27.6416 21.7001 25.3941 21.6276L26.5616 16.2892L30.2791 17.1359C30.2791 18.0592 31.0208 18.8134 31.9308 18.8134C32.8583 18.8134 33.6041 18.0392 33.6041 17.1151C33.6041 16.1909 32.8633 15.4167 31.9316 15.4167C31.2824 15.4167 30.7224 15.8142 30.4433 16.3576L26.3374 15.4342C26.1308 15.3784 25.9283 15.5284 25.8733 15.7384L24.5916 21.6234C22.3616 21.7176 20.3549 22.3967 18.8458 23.4542C18.4366 23.0226 17.8591 22.7567 17.2274 22.7567C14.8841 22.7567 14.1166 25.9476 16.2624 27.0384C16.1866 27.3759 16.1524 27.7359 16.1524 28.0951C16.1524 31.6792 20.1316 34.5834 25.0174 34.5834C29.9241 34.5834 33.9033 31.6792 33.9033 28.0951C33.9033 27.7359 33.8658 27.3592 33.7733 27.0209C35.8758 25.9259 35.1016 22.7584 32.7708 22.7567ZM19.6674 27.2651C19.6674 26.3242 20.4091 25.5667 21.3408 25.5667C22.2508 25.5667 22.9933 26.3192 22.9933 27.2651C22.9933 28.1892 22.2516 28.9426 21.3408 28.9426C20.4133 28.9467 19.6674 28.1892 19.6674 27.2651ZM28.6999 31.2634C27.1658 32.8201 22.8366 32.8201 21.3016 31.2634C21.1324 31.1134 21.1324 30.8484 21.3016 30.6776C21.4491 30.5276 21.7108 30.5276 21.8583 30.6776C23.0299 31.8967 26.9166 31.9176 28.1391 30.6776C28.2866 30.5276 28.5483 30.5276 28.6958 30.6776C28.8683 30.8492 28.8683 31.1142 28.6999 31.2634ZM28.6658 28.9459C27.7558 28.9459 27.0141 28.1934 27.0141 27.2701C27.0141 26.3292 27.7558 25.5717 28.6658 25.5717C29.5933 25.5717 30.3391 26.3242 30.3391 27.2701C30.3349 28.1892 29.5933 28.9459 28.6658 28.9459Z" fill="white"/>
</g>
<defs>
<clipPath id="clip0">
<rect width="20" height="20" fill="white" transform="translate(15 15)"/>
</clipPath>
</defs>
</svg>
