<svg width="50" height="50" viewBox="0 0 50 50" fill="none" xmlns="http://www.w3.org/2000/svg">
<circle opacity="0.05" cx="25" cy="25" r="24" stroke="white" stroke-width="2"/>
<path d="M34.1666 17.5001C33.3686 18.063 32.4851 18.4935 31.55 18.7751C31.0481 18.198 30.3811 17.789 29.6392 17.6034C28.8973 17.4177 28.1162 17.4644 27.4017 17.7371C26.6872 18.0098 26.0737 18.4954 25.6441 19.1282C25.2146 19.7609 24.9897 20.5104 25 21.2751V22.1084C23.5355 22.1464 22.0844 21.8216 20.7758 21.163C19.4673 20.5043 18.3419 19.5323 17.5 18.3334C17.5 18.3334 14.1666 25.8334 21.6666 29.1667C19.9504 30.3317 17.9059 30.9159 15.8333 30.8334C23.3333 35.0001 32.5 30.8334 32.5 21.2501C32.4992 21.018 32.4769 20.7864 32.4333 20.5584C33.2838 19.7197 33.884 18.6607 34.1666 17.5001V17.5001Z" fill="white"/>
</svg>
